# xmcd CD database file
#
# Track frame offsets:
#	150
#	15375
#	31737
#	51212
#	67312
#	84862
#	109350
#	130800
#
# Disc length: 2037 seconds
#
# Revision: 0
# Processed by: cddbd v1.5.1PL0 Copyright (c) Steve Scherf et al.
# Submitted via: CDex 1.60beta1
#
DISCID=6207f308
DTITLE=木村 和 - 何の変哲もないLove Songs
DYEAR=2005
DGENRE=J-POP
TTITLE0=何の変哲もないＬｏｖｅ Ｓｏｎｇ
TTITLE1=東京ライフ
TTITLE2=君が好き胸が痛い
TTITLE3=牛乳のんでギュ−
TTITLE4=君を待つ
TTITLE5=月海
TTITLE6=５０年後も
TTITLE7=雪風
EXTD=YEAR: 2005
EXTT0=
EXTT1=
EXTT2=
EXTT3=
EXTT4=
EXTT5=
EXTT6=
EXTT7=
PLAYORDER=
